<svg id="Capa_1" data-name="Capa 1" xmlns="http://www.w3.org/2000/svg" viewBox="0 0 482.14 482.14" fill='#39607F'><title>pdf-file</title><path d="M315.46,0H121.81A51.39,51.39,0,0,0,70.5,51.32V241.07h-5a20.67,20.67,0,0,0-20.67,20.68v125.4a20.67,20.67,0,0,0,20.67,20.68h5v23a51.37,51.37,0,0,0,51.31,51.32H386a51.36,51.36,0,0,0,51.3-51.32V121.45ZM100,357.77q-11-11.7-11-32,0-21.43,11.07-33.31t29.12-11.86q15.76,0,25.61,9.31,5.85,5.51,8.79,15.82l-17.17,4.1a17.76,17.76,0,0,0-18.11-14.41,19.54,19.54,0,0,0-15.49,6.86q-6,6.85-6,22.2,0,16.29,5.86,23.21a19,19,0,0,0,15.23,6.91,17.38,17.38,0,0,0,11.9-4.39q5-4.39,7.15-13.83l16.81,5.33q-3.87,14.06-12.86,20.89t-22.82,6.82Q111,369.45,100,357.77ZM386,450.71H121.81a19.9,19.9,0,0,1-19.87-19.89v-23H348.25a20.68,20.68,0,0,0,20.68-20.68V261.75a20.68,20.68,0,0,0-20.68-20.68H101.94V51.32a19.9,19.9,0,0,1,19.87-19.86l181.89-.19V98.5a35.6,35.6,0,0,0,35.59,35.59l65.86-.19.74,296.92A19.89,19.89,0,0,1,386,450.71ZM225,337.84q-1.78-2.13-6.24-3.72-3-1-13.88-3.75-14-3.45-19.57-8.49a22.34,22.34,0,0,1-7.91-17.29,22,22,0,0,1,3.72-12.27,23.33,23.33,0,0,1,10.72-8.71,43,43,0,0,1,16.9-3q16.17,0,24.35,7.09t8.58,18.92l-17.34.76q-1.11-6.61-4.78-9.52t-11-2.9q-7.56,0-11.84,3.11a6.24,6.24,0,0,0-2.75,5.33,6.58,6.58,0,0,0,2.58,5.21q3.27,2.76,15.93,5.75t18.72,6.18a24.15,24.15,0,0,1,9.5,8.73q3.42,5.54,3.42,13.68A25.27,25.27,0,0,1,240,356.8a24.54,24.54,0,0,1-11.6,9.58q-7.5,3.14-18.69,3.13-16.29,0-25-7.53T174.25,340l16.87-1.64q1.53,8.49,6.19,12.48t12.56,4q8.38,0,12.63-3.54a10.55,10.55,0,0,0,4.25-8.29A7.85,7.85,0,0,0,225,337.84Zm24.93-55.75H268.7l21.74,63.58,21-63.58h18.39L299.11,368H280.6Z"/></svg>