<svg id="Capa_1" data-name="Capa 1" xmlns="http://www.w3.org/2000/svg" viewBox="0 0 482.14 482.14" fill='#39607F'><title>pdf-file</title><path d="M134.48,319.68a11.41,11.41,0,0,0,5.42-4.22,11.53,11.53,0,0,0,2-6.68,11.08,11.08,0,0,0-2.76-7.73,12,12,0,0,0-7-3.81,83.25,83.25,0,0,0-12.48-.59h-8.38V321h9.49Q131,321,134.48,319.68Z"/><path d="M217.57,297q-2.12-.3-12.66-.3H191.38v21.8h12.83q12.48,0,15.59-1.06a9.3,9.3,0,0,0,4.86-3.63,11.2,11.2,0,0,0,1.76-6.44,10.29,10.29,0,0,0-2.32-7A10.6,10.6,0,0,0,217.57,297Z"/><path d="M315.46,0H121.81A51.39,51.39,0,0,0,70.5,51.32V241.07h-5a20.67,20.67,0,0,0-20.67,20.68v125.4a20.67,20.67,0,0,0,20.67,20.68h5v23a51.37,51.37,0,0,0,51.31,51.32H386a51.36,51.36,0,0,0,51.3-51.32V121.45ZM93.94,282.12h27.83q15.83,0,20.62,1.29a22.5,22.5,0,0,1,12.37,8.41q5,6.46,5,16.73a28.1,28.1,0,0,1-2.87,13.3,23.62,23.62,0,0,1-7.3,8.46,25.32,25.32,0,0,1-9,4.08q-6.21,1.23-18,1.23H111.28V368H93.94ZM386,450.71H121.81a19.9,19.9,0,0,1-19.87-19.89v-23H348.25a20.68,20.68,0,0,0,20.68-20.68V261.75a20.68,20.68,0,0,0-20.68-20.68H101.94V51.32a19.9,19.9,0,0,1,19.87-19.86l181.89-.19V98.5a35.6,35.6,0,0,0,35.59,35.59l65.86-.19.74,296.92A19.89,19.89,0,0,1,386,450.71ZM230.9,337.32q3.66,3.92,9.87,13.94L251.26,368H230.52L218,349.33q-6.67-10-9.14-12.63a13.21,13.21,0,0,0-5.22-3.57,28.34,28.34,0,0,0-8.73-1h-3.51V368H174v-85.9h36.51q13.77,0,20,2.32a19.7,19.7,0,0,1,10,8.23,24.73,24.73,0,0,1,3.75,13.53q0,9.68-5.69,16t-17,7.94A40.45,40.45,0,0,1,230.9,337.32Zm23.58-40.67V282.12h68.27v14.53H297.32V368H280V296.65Z"/></svg>