<svg id="Capa_1" data-name="Capa 1" xmlns="http://www.w3.org/2000/svg" viewBox="0 0 482.14 482.14" fill='#39607F'><defs><style>.cls-1{fill:#fff;}</style></defs><title>pdf-file</title><path d="M315.46,0H121.81A51.39,51.39,0,0,0,70.5,51.32V241.07h-5a20.67,20.67,0,0,0-20.67,20.68v125.4a20.67,20.67,0,0,0,20.67,20.68h5v23a51.37,51.37,0,0,0,51.31,51.32H386a51.36,51.36,0,0,0,51.3-51.32V121.45ZM386,450.71H121.81a19.9,19.9,0,0,1-19.87-19.89v-23H348.25a20.68,20.68,0,0,0,20.68-20.68V261.75a20.68,20.68,0,0,0-20.68-20.68H101.94V51.32a19.9,19.9,0,0,1,19.87-19.86l181.89-.19V98.5a35.6,35.6,0,0,0,35.59,35.59l65.86-.19.74,296.92A19.89,19.89,0,0,1,386,450.71Z"/><path class="cls-1" d="M76.33,368l29.36-44.82-26.6-41.08H99.36l17.23,27.6,16.87-27.6h20.1l-26.72,41.72L156.2,368H135.28l-19-29.71L97.14,368Z"/><path class="cls-1" d="M165.57,368v-85.2h17.35v70.73H226V368Z"/><path class="cls-1" d="M244,368l-20.51-85.9h17.76l12.95,59,15.7-59h20.62l15.06,60,13.19-60H336.2L315.34,368h-18.4L279.83,303.8,262.78,368Z"/></svg>